<svg xmlns="http://www.w3.org/2000/svg" viewBox="0 0 1440 320"><path fill="grey" fill-opacity="1" d="M0,192L26.7,186.7C53.3,181,107,171,160,186.7C213.3,203,267,245,320,224C373.3,203,427,117,480,112C533.3,107,587,181,640,197.3C693.3,213,747,171,800,149.3C853.3,128,907,128,960,149.3C1013.3,171,1067,213,1120,197.3C1173.3,181,1227,107,1280,90.7C1333.3,75,1387,117,1413,138.7L1440,160L1440,320L1413.3,320C1386.7,320,1333,320,1280,320C1226.7,320,1173,320,1120,320C1066.7,320,1013,320,960,320C906.7,320,853,320,800,320C746.7,320,693,320,640,320C586.7,320,533,320,480,320C426.7,320,373,320,320,320C266.7,320,213,320,160,320C106.7,320,53,320,27,320L0,320Z"></path></svg>